<svg xmlns="http://www.w3.org/2000/svg" version="1.1" xmlns:xlink="http://www.w3.org/1999/xlink" xmlns:svgjs="http://svgjs.com/svgjs" width="1965" height="1100" preserveAspectRatio="none" viewBox="0 0 1965 1100"><g mask="url(&quot;#SvgjsMask8181&quot;)" fill="none"><rect width="1965" height="1100" x="0" y="0" fill="url(#SvgjsRadialGradient8182)"></rect><use xlink:href="#SvgjsG8191" transform="translate(0, 0)" fill="rgba(255, 255, 255, 1)"></use><use xlink:href="#SvgjsG8191" transform="translate(0, 598)" fill="rgba(255, 255, 255, 1)"></use><use xlink:href="#SvgjsG8191" transform="translate(598, 0)" fill="rgba(255, 255, 255, 1)"></use><use xlink:href="#SvgjsG8191" transform="translate(598, 598)" fill="rgba(255, 255, 255, 1)"></use><use xlink:href="#SvgjsG8191" transform="translate(1196, 0)" fill="rgba(255, 255, 255, 1)"></use><use xlink:href="#SvgjsG8191" transform="translate(1196, 598)" fill="rgba(255, 255, 255, 1)"></use><use xlink:href="#SvgjsG8191" transform="translate(1794, 0)" fill="rgba(255, 255, 255, 1)"></use><use xlink:href="#SvgjsG8191" transform="translate(1794, 598)" fill="rgba(255, 255, 255, 1)"></use></g><defs><mask id="SvgjsMask8181"><rect width="1965" height="1100" fill="#ffffff"></rect></mask><radialGradient cx="50%" cy="100%" r="1474.89" gradientUnits="userSpaceOnUse" id="SvgjsRadialGradient8182"><stop stop-color="rgba(69, 58, 183, 1)" offset="0.16"></stop><stop stop-color="rgba(255, 255, 255, 1)" offset="1"></stop></radialGradient><g id="SvgjsG8189"><path d="M0.26 10.35C-0.82 10.04-0.57 8.86-0.57 8.86L1.52 1.57l14.31 4.1S16.92 5.93 16.63 6.92c-0.3 1.04-1.21 0.72-1.21 0.72L11.6 6.54a1.37 1.37 0 0 0-0.28-0.16L8.31 5.09l-3.17-1.99a0.22 0.22 0 0 0-0.3 0.07c-0.06 0.1-0.03 0.24 0.07 0.31l3.23 2.02a0.98 0.98 0 0 1 0.44 0.62 0.97 0.97 0 0 1-0.13 0.74 0.97 0.97 0 0 1-0.61 0.43 0.98 0.98 0 0 1-0.74-0.12c0 0 0 0 0 0L5.74 6.31c-0.7-0.46-1.34-0.38-2.03-0.3-0.52 0.06-1.07 0.13-1.73-0.01a3.78 3.78 0 0 1-0.27-0.07 0.21 0.21 0 0 0-0.27 0.15c-0.03 0.11 0.03 0.24 0.15 0.27 0.88 0.25 1.57 0.17 2.18 0.1 0.65-0.08 1.16-0.14 1.73 0.23l0.29 0.18c-0.47 0.07-0.89 0.38-1.1 0.85-0.23 0.54-0.1 1.14 0.28 1.53a1.29 1.29 0 0 0-0.79 0.72c-0.28 0.65 0.01 1.45 0.67 1.71L0.26 10.35z" fill-rule="evenodd"></path><path d="M11.66 8.07c-0.21 0.5-0.79 0.73-1.29 0.52l-2.21-0.94a1.4 1.4 0 0 0 0.66-0.56 1.41 1.41 0 0 0 0.13-1.25l2.2 0.94a0.99 0.99 0 0 1 0.51 1.29M9.93 9.95a0.98 0.98 0 0 1-0.54 0.52 0.98 0.98 0 0 1-0.75-0.01L5.61 9.17a0.98 0.98 0 0 1-0.52-1.29 0.98 0.98 0 0 1 0.54-0.53 0.98 0.98 0 0 1 0.76 0.01l3.02 1.3a0.99 0.99 0 0 1 0.52 1.29M7.89 11.55a0.85 0.85 0 0 1-1.12 0.44l-1.74-0.74a0.85 0.85 0 0 1-0.45-1.12 0.85 0.85 0 0 1 1.12-0.45l1.74 0.75a0.85 0.85 0 0 1 0.48 1.01c-0.01 0.04-0.02 0.07-0.03 0.11" fill-rule="evenodd"></path></g><g id="SvgjsG8185"><path d="M9.91 1.34C5.67 0.13 1.5 1.73 0.58 4.92c-0.45 1.56-0.03 3.22 1.01 4.64l-0.99 3.47 4.53-0.67c0.46 0.21 0.95 0.39 1.46 0.54 4.24 1.21 8.41-0.39 9.33-3.58C16.83 6.13 14.14 2.56 9.91 1.34z" fill-rule="evenodd"></path></g><g id="SvgjsG8188"><path d="M10.83 0.49C8.19-0.27 5.17 1.02 4.04 3.06 3.79 3.52 3.29 4.75 3.29 4.75L1.2 7.48A0.47 0.47 0 0 0 1.11 7.65a0.49 0.49 0 0 0 0.34 0.6l0.78 0.23-0.47 1.63c-0.36 1.27 0.37 2.6 1.64 2.96l0.91 0.26L3.8 15.12l3.4 0.97 0.23-0.79 1.38 0.39L8.58 16.49l1.45 0.41L11.45 11.95c1.66-0.68 3.01-2.09 3.55-3.95C15.92 4.78 14.06 1.42 10.83 0.49zM4.4 6.33a0.68 0.68 0 0 1-0.47-0.84c0.1-0.36 0.48-0.57 0.84-0.47a0.68 0.68 0 0 1 0.47 0.84c-0.1 0.36-0.48 0.57-0.84 0.47z m3.94 5.77l1.39 0.4-0.22 0.75-1.38-0.4 0.21-0.75z m0.31-1.06l1.38 0.39-0.21 0.75-1.38-0.4L8.65 11.04z m-0.61 2.13l1.38 0.39-0.21 0.75-1.39-0.4 0.22-0.74z m-0.31 1.06l1.39 0.4-0.22 0.75-1.38-0.4L7.73 14.23z m1.23-4.26l1.39 0.4c-0.02 0.05-0.04 0.11-0.06 0.16l-0.17 0.59-1.38-0.4L8.95 9.97z m5.06-3.21a1.56 1.56 0 0 1-0.7 0.91c-0.21 0.56-0.7 0.93-1.27 1l0 0.01c-0.71 0.18-1.26 0.69-1.58 1.38L9.9 9.9l0.49-1.7c0.16-0.53 0.42-0.82 0.83-0.92a1.91 1.91 0 0 0 0.41-0.16 1.23 1.23 0 0 1 0.48 0.72c0.02 0.06 0.06 0.1 0.12 0.12 0.03 0.01 0.05 0.01 0.08 0a0.16 0.16 0 0 0 0.12-0.2l0 0a1.56 1.56 0 0 0-0.51-0.83c0.21-0.18 0.36-0.42 0.45-0.74 0 0 0 0 0.01 0 0.04-0.14 0.06-0.29 0.06-0.43a1.57 1.57 0 0 0 0.97-0.23 0.16 0.16 0 0 0 0.05-0.23 0.16 0.16 0 0 0-0.23-0.05 1.25 1.25 0 0 1-0.83 0.17c-0.11-0.49-0.45-0.92-0.94-1.12a1.24 1.24 0 0 1 0.54-0.6 0.17 0.17 0 0 0 0.07-0.22 0.17 0.17 0 0 0-0.23-0.07 1.57 1.57 0 0 0-0.69 0.78 1.24 1.24 0 0 1-0.71-1.49c0.02-0.09-0.03-0.18-0.11-0.2-0.09-0.03-0.18 0.03-0.2 0.11-0.03 0.1-0.05 0.2-0.06 0.31a1.24 1.24 0 0 1-1.25-0.12s0 0 0 0a1.23 1.23 0 0 1-0.36-0.41c-0.04-0.08-0.14-0.11-0.22-0.06-0.08 0.04-0.11 0.14-0.07 0.22a1.59 1.59 0 0 0 0.35 0.43c-0.15 0.39-0.47 0.66-0.84 0.76a1.58 1.58 0 0 0-0.64-0.84 0.17 0.17 0 0 0-0.23 0.04c-0.05 0.08-0.03 0.18 0.05 0.23a1.25 1.25 0 0 1 0.48 0.61 1.22 1.22 0 0 1-0.32-0.05l-0.02 0a1.57 1.57 0 0 0-1.17 0.12 0.16 0.16 0 0 0-0.07 0.23 0.16 0.16 0 0 0 0.22 0.06 1.24 1.24 0 0 1 0.93-0.1l0.02 0.01c0.76 0.22 1.56-0.17 1.87-0.88 0.1 0.05 0.21 0.1 0.32 0.13A1.57 1.57 0 0 0 10.08 3.27a1.56 1.56 0 0 0 0.28 0.69 1.56 1.56 0 0 0-0.56 0.69 1.62 1.62 0 0 0-0.24-0.09 1.56 1.56 0 0 0-0.76-0.03c-0.09 0.02-0.15 0.11-0.12 0.2 0.01 0.06 0.06 0.11 0.11 0.12a0.14 0.14 0 0 0 0.08 0.01 1.25 1.25 0 0 1 0.6 0.02c0.08 0.02 0.16 0.06 0.24 0.09a1.58 1.58 0 0 0 0.16 1.01c0.02 0.04 0.06 0.07 0.1 0.08 0.04 0.01 0.08 0.01 0.12-0.02 0.08-0.04 0.11-0.14 0.07-0.22l0 0a1.25 1.25 0 0 1-0.11-0.89c0 0 0-0.01 0.01-0.01l0-0.02a1.24 1.24 0 0 1 0.51-0.7 1.57 1.57 0 0 0 0.63 0.36s0 0 0 0l0.01 0a1.24 1.24 0 0 1 0.85 1.53 1.57 1.57 0 0 0-0.37-0.16c-0.19-0.05-0.39-0.07-0.6-0.05a0.16 0.16 0 0 0-0.14 0.18c0.01 0.09 0.09 0.16 0.18 0.15a1.25 1.25 0 0 1 0.47 0.04c0.12 0.03 0.23 0.09 0.33 0.15a0.95 0.95 0 0 1-0.36 0.38 0.14 0.14 0 0 0-0.03 0.02c-0.12 0.06-0.25 0.11-0.41 0.16-0.54 0.14-0.89 0.56-1.06 1.15L9.59 9.81l-0.54-0.16L9.51 8.04c0.17-0.59-0.04-1.26-0.45-1.59-0.2-0.15-0.39-0.36-0.51-0.6a1.56 1.56 0 0 1-0.92 0.01 1.56 1.56 0 0 1-0.76-0.5 1.58 1.58 0 0 1-0.91 0.01c-0.85-0.24-1.34-1.13-1.1-1.97 0.18-0.63 0.72-1.07 1.34-1.14 0.34-0.63 1.09-0.97 1.81-0.77 0.04 0.01 0.07 0.02 0.1 0.04a1.57 1.57 0 0 1 1.44-0.3c0.26 0.07 0.48 0.21 0.65 0.38a1.56 1.56 0 0 1 1.81 0.68 1.55 1.55 0 0 1 0.36 0.06c0.61 0.17 1.03 0.69 1.12 1.28 0.56 0.36 0.85 1.07 0.65 1.75a1.58 1.58 0 0 1-0.16 0.38 1.56 1.56 0 0 1 0.04 1z"></path></g><g id="SvgjsG8183"><path d="M9.63 3.87a1.19 1.19 0 0 0 0.66-2.28 1.19 1.19 0 0 0-0.66 2.28"></path><path d="M10.41 4.37l-1.66-0.48L6.72 0.24A0.6 0.6 0 0 0 5.91-0.01a0.6 0.6 0 0 0-0.26 0.81l2.11 3.82-2.82 9.83a0.66 0.66 0 0 0 1.28 0.37L7.75 9.48l0.52 0.15-1.53 5.34c-0.1 0.36 0.11 0.73 0.46 0.82 0.35 0.1 0.72-0.11 0.82-0.46L10.84 5.5 14.65 3.38a0.6 0.6 0 0 0 0.22-0.82 0.6 0.6 0 0 0-0.83-0.22L10.41 4.36z"></path></g><g id="SvgjsG8186"><path d="M1.19 10.41a1.05 1.05 0 1 1 0.58-2.02 1.05 1.05 0 0 1-0.58 2.02zM-1.9 13.48L-1.33 11.51c0.2-0.71 0.96-1.12 1.67-0.92l1.4 0.4c0.71 0.2 1.19 0.97 0.98 1.68L2.15 14.64-1.9 13.48z m13.58-0.16a1.05 1.05 0 0 0 1.29-0.72 1.05 1.05 0 0 0-2.01-0.58 1.05 1.05 0 0 0 0.72 1.3zM12.63 17.65L13.2 15.67c0.2-0.71-0.22-1.46-0.93-1.66l-1.39-0.4c-0.72-0.21-1.52 0.19-1.72 0.9L8.59 16.49l4.04 1.16z"></path><path d="M5.69 10.6a1.06 1.05 16 1 0 2.04 0.58 1.06 1.05 16 1 0-2.04-0.58"></path><path d="M2.91 14.86l1.43-1.96c0.64-1.03 1.57-0.72 1.57-0.72l0.8 0.23s0.95 0.23 0.94 1.44L7.83 16.27l-4.92-1.41z m4.46-6.26l0.68-2.4-0.28-0.51-0.69 2.4L1.07 6.36 3.25-1.25l6.02 1.72L8.14 4.38l0.29 0.51L9.78 0.19 2.97-1.76l-2.41 8.41 6.81 1.95z m6.48-2.87a1.05 1.05 0 0 1-0.72-1.3c0.16-0.56 0.74-0.88 1.3-0.72a1.05 1.05 0 0 1 0.71 1.3 1.05 1.05 0 0 1-1.29 0.71z"></path><path d="M8.6 7.09a0.44 0.44 0 0 0 0.31 0.55l1.39 0.4c0.16 0.05 0.39 0.04 0.52-0.07 0.43-0.36 0.88-0.74 1.01-0.85l-0.76 2.64 3.52 1.01L15.37 8.06c0.2-0.71-0.17-1.51-0.82-1.69-0.09 0.33-0.03 0.11 0-0.02L12.86 5.87a1.34 1.34 0 0 0-1.24 0.26l-1.2 1.03-1.27-0.37L7.87 4.48a0.18 0.18 0 0 0-0.24-0.07 0.18 0.18 0 0 0-0.07 0.25l1.21 2.19c-0.05 0.05-0.15 0.16-0.17 0.24z"></path></g><g id="SvgjsG8187"><path d="M10.15 13.85L2.35 11.61 5.27 1.43l7.8 2.23-2.92 10.19z m-4.33 0.36a0.46 0.46 0 1 1 0.26-0.87 0.46 0.46 0 0 1-0.26 0.87zM8.81 1.25l1.34 0.38c0.19 0.05 0.09 0.4-0.09 0.35l-1.35-0.39c-0.19-0.05-0.09-0.4 0.1-0.34zM13.45 1.67L6-0.47C5.68-0.56 5.33-0.3 5.21 0.12L1.6 12.69c-0.12 0.41 0.04 0.82 0.36 0.92l7.46 2.13c0.32 0.09 0.68-0.17 0.79-0.58L13.82 2.58c0.12-0.42-0.05-0.83-0.37-0.91z" fill-rule="evenodd"></path></g><g id="SvgjsG8190"><path d="M9.65 2.25C5.62 1.1 1.66 2.62 0.79 5.65c-0.43 1.48-0.03 3.05 0.96 4.41l-0.95 3.3 4.31-0.64c0.44 0.2 0.9 0.37 1.39 0.51 4.02 1.15 7.99-0.37 8.86-3.4 0.87-3.03-1.69-6.42-5.71-7.58zM4.68 8.02a1.07 1.07 0 1 1 0.58-2.05 1.07 1.07 0 0 1-0.58 2.05z m3.06 0.88a1.07 1.07 0 1 1 0.59-2.05 1.07 1.07 0 0 1-0.59 2.05z m3.02 0.86c-0.57-0.16-0.89-0.75-0.73-1.32s0.75-0.89 1.32-0.73 0.89 0.75 0.73 1.32a1.07 1.07 0 0 1-1.32 0.73z"></path></g><g id="SvgjsG8184"><path d="M2.72 10.23l3.87 1.11c0.32 0.28 2.95 3.53 3.4 4.07l0.83-2.88-0.02 0a2.76 2.76 0 0 0 3.09-1.97L15.47 5.03c0.42-1.47-0.42-3-1.9-3.42L5.83-0.61c-1.47-0.42-3 0.43-3.42 1.9l-1.59 5.52c-0.42 1.47 0.43 3 1.9 3.42z" fill-rule="evenodd"></path></g><g id="SvgjsG8191"><use xlink:href="#SvgjsG8183" transform="translate(0, 0) scale(2.3)" fill="rgba(255, 255, 255, 1)"></use><use xlink:href="#SvgjsG8184" transform="translate(0, 59.8) scale(2.3)" fill="rgba(255, 255, 255, 1)"></use><use xlink:href="#SvgjsG8185" transform="translate(0, 119.6) scale(2.3)" fill="rgba(255, 255, 255, 1)"></use><use xlink:href="#SvgjsG8186" transform="translate(0, 179.39999999999998) scale(2.3)" fill="rgba(255, 255, 255, 1)"></use><use xlink:href="#SvgjsG8187" transform="translate(0, 239.2) scale(2.3)" fill="rgba(255, 255, 255, 1)"></use><use xlink:href="#SvgjsG8188" transform="translate(0, 299) scale(2.3)" fill="rgba(255, 255, 255, 1)"></use><use xlink:href="#SvgjsG8185" transform="translate(0, 358.79999999999995) scale(2.3)" fill="rgba(255, 255, 255, 1)"></use><use xlink:href="#SvgjsG8189" transform="translate(0, 418.59999999999997) scale(2.3)" fill="rgba(255, 255, 255, 1)"></use><use xlink:href="#SvgjsG8185" transform="translate(0, 478.4) scale(2.3)" fill="rgba(255, 255, 255, 1)"></use><use xlink:href="#SvgjsG8187" transform="translate(0, 538.1999999999999) scale(2.3)" fill="rgba(255, 255, 255, 1)"></use><use xlink:href="#SvgjsG8183" transform="translate(59.8, 0) scale(2.3)" fill="rgba(255, 255, 255, 1)"></use><use xlink:href="#SvgjsG8190" transform="translate(59.8, 59.8) scale(2.3)" fill="rgba(255, 255, 255, 1)"></use><use xlink:href="#SvgjsG8190" transform="translate(59.8, 119.6) scale(2.3)" fill="rgba(255, 255, 255, 1)"></use><use xlink:href="#SvgjsG8190" transform="translate(59.8, 179.39999999999998) scale(2.3)" fill="rgba(255, 255, 255, 1)"></use><use xlink:href="#SvgjsG8183" transform="translate(59.8, 239.2) scale(2.3)" fill="rgba(255, 255, 255, 1)"></use><use xlink:href="#SvgjsG8183" transform="translate(59.8, 299) scale(2.3)" fill="rgba(255, 255, 255, 1)"></use><use xlink:href="#SvgjsG8187" transform="translate(59.8, 358.79999999999995) scale(2.3)" fill="rgba(255, 255, 255, 1)"></use><use xlink:href="#SvgjsG8186" transform="translate(59.8, 418.59999999999997) scale(2.3)" fill="rgba(255, 255, 255, 1)"></use><use xlink:href="#SvgjsG8183" transform="translate(59.8, 478.4) scale(2.3)" fill="rgba(255, 255, 255, 1)"></use><use xlink:href="#SvgjsG8188" transform="translate(59.8, 538.1999999999999) scale(2.3)" fill="rgba(255, 255, 255, 1)"></use><use xlink:href="#SvgjsG8187" transform="translate(119.6, 0) scale(2.3)" fill="rgba(255, 255, 255, 1)"></use><use xlink:href="#SvgjsG8185" transform="translate(119.6, 59.8) scale(2.3)" fill="rgba(255, 255, 255, 1)"></use><use xlink:href="#SvgjsG8183" transform="translate(119.6, 119.6) scale(2.3)" fill="rgba(255, 255, 255, 1)"></use><use xlink:href="#SvgjsG8190" transform="translate(119.6, 179.39999999999998) scale(2.3)" fill="rgba(255, 255, 255, 1)"></use><use xlink:href="#SvgjsG8187" transform="translate(119.6, 239.2) scale(2.3)" fill="rgba(255, 255, 255, 1)"></use><use xlink:href="#SvgjsG8185" transform="translate(119.6, 299) scale(2.3)" fill="rgba(255, 255, 255, 1)"></use><use xlink:href="#SvgjsG8187" transform="translate(119.6, 358.79999999999995) scale(2.3)" fill="rgba(255, 255, 255, 1)"></use><use xlink:href="#SvgjsG8183" transform="translate(119.6, 418.59999999999997) scale(2.3)" fill="rgba(255, 255, 255, 1)"></use><use xlink:href="#SvgjsG8184" transform="translate(119.6, 478.4) scale(2.3)" fill="rgba(255, 255, 255, 1)"></use><use xlink:href="#SvgjsG8187" transform="translate(119.6, 538.1999999999999) scale(2.3)" fill="rgba(255, 255, 255, 1)"></use><use xlink:href="#SvgjsG8188" transform="translate(179.39999999999998, 0) scale(2.3)" fill="rgba(255, 255, 255, 1)"></use><use xlink:href="#SvgjsG8183" transform="translate(179.39999999999998, 59.8) scale(2.3)" fill="rgba(255, 255, 255, 1)"></use><use xlink:href="#SvgjsG8189" transform="translate(179.39999999999998, 119.6) scale(2.3)" fill="rgba(255, 255, 255, 1)"></use><use xlink:href="#SvgjsG8187" transform="translate(179.39999999999998, 179.39999999999998) scale(2.3)" fill="rgba(255, 255, 255, 1)"></use><use xlink:href="#SvgjsG8185" transform="translate(179.39999999999998, 239.2) scale(2.3)" fill="rgba(255, 255, 255, 1)"></use><use xlink:href="#SvgjsG8183" transform="translate(179.39999999999998, 299) scale(2.3)" fill="rgba(255, 255, 255, 1)"></use><use xlink:href="#SvgjsG8185" transform="translate(179.39999999999998, 358.79999999999995) scale(2.3)" fill="rgba(255, 255, 255, 1)"></use><use xlink:href="#SvgjsG8184" transform="translate(179.39999999999998, 418.59999999999997) scale(2.3)" fill="rgba(255, 255, 255, 1)"></use><use xlink:href="#SvgjsG8190" transform="translate(179.39999999999998, 478.4) scale(2.3)" fill="rgba(255, 255, 255, 1)"></use><use xlink:href="#SvgjsG8188" transform="translate(179.39999999999998, 538.1999999999999) scale(2.3)" fill="rgba(255, 255, 255, 1)"></use><use xlink:href="#SvgjsG8186" transform="translate(239.2, 0) scale(2.3)" fill="rgba(255, 255, 255, 1)"></use><use xlink:href="#SvgjsG8183" transform="translate(239.2, 59.8) scale(2.3)" fill="rgba(255, 255, 255, 1)"></use><use xlink:href="#SvgjsG8183" transform="translate(239.2, 119.6) scale(2.3)" fill="rgba(255, 255, 255, 1)"></use><use xlink:href="#SvgjsG8187" transform="translate(239.2, 179.39999999999998) scale(2.3)" fill="rgba(255, 255, 255, 1)"></use><use xlink:href="#SvgjsG8185" transform="translate(239.2, 239.2) scale(2.3)" fill="rgba(255, 255, 255, 1)"></use><use xlink:href="#SvgjsG8183" transform="translate(239.2, 299) scale(2.3)" fill="rgba(255, 255, 255, 1)"></use><use xlink:href="#SvgjsG8185" transform="translate(239.2, 358.79999999999995) scale(2.3)" fill="rgba(255, 255, 255, 1)"></use><use xlink:href="#SvgjsG8190" transform="translate(239.2, 418.59999999999997) scale(2.3)" fill="rgba(255, 255, 255, 1)"></use><use xlink:href="#SvgjsG8190" transform="translate(239.2, 478.4) scale(2.3)" fill="rgba(255, 255, 255, 1)"></use><use xlink:href="#SvgjsG8183" transform="translate(239.2, 538.1999999999999) scale(2.3)" fill="rgba(255, 255, 255, 1)"></use><use xlink:href="#SvgjsG8184" transform="translate(299, 0) scale(2.3)" fill="rgba(255, 255, 255, 1)"></use><use xlink:href="#SvgjsG8183" transform="translate(299, 59.8) scale(2.3)" fill="rgba(255, 255, 255, 1)"></use><use xlink:href="#SvgjsG8190" transform="translate(299, 119.6) scale(2.3)" fill="rgba(255, 255, 255, 1)"></use><use xlink:href="#SvgjsG8186" transform="translate(299, 179.39999999999998) scale(2.3)" fill="rgba(255, 255, 255, 1)"></use><use xlink:href="#SvgjsG8189" transform="translate(299, 239.2) scale(2.3)" fill="rgba(255, 255, 255, 1)"></use><use xlink:href="#SvgjsG8184" transform="translate(299, 299) scale(2.3)" fill="rgba(255, 255, 255, 1)"></use><use xlink:href="#SvgjsG8187" transform="translate(299, 358.79999999999995) scale(2.3)" fill="rgba(255, 255, 255, 1)"></use><use xlink:href="#SvgjsG8185" transform="translate(299, 418.59999999999997) scale(2.3)" fill="rgba(255, 255, 255, 1)"></use><use xlink:href="#SvgjsG8187" transform="translate(299, 478.4) scale(2.3)" fill="rgba(255, 255, 255, 1)"></use><use xlink:href="#SvgjsG8190" transform="translate(299, 538.1999999999999) scale(2.3)" fill="rgba(255, 255, 255, 1)"></use><use xlink:href="#SvgjsG8190" transform="translate(358.79999999999995, 0) scale(2.3)" fill="rgba(255, 255, 255, 1)"></use><use xlink:href="#SvgjsG8188" transform="translate(358.79999999999995, 59.8) scale(2.3)" fill="rgba(255, 255, 255, 1)"></use><use xlink:href="#SvgjsG8186" transform="translate(358.79999999999995, 119.6) scale(2.3)" fill="rgba(255, 255, 255, 1)"></use><use xlink:href="#SvgjsG8190" transform="translate(358.79999999999995, 179.39999999999998) scale(2.3)" fill="rgba(255, 255, 255, 1)"></use><use xlink:href="#SvgjsG8184" transform="translate(358.79999999999995, 239.2) scale(2.3)" fill="rgba(255, 255, 255, 1)"></use><use xlink:href="#SvgjsG8185" transform="translate(358.79999999999995, 299) scale(2.3)" fill="rgba(255, 255, 255, 1)"></use><use xlink:href="#SvgjsG8187" transform="translate(358.79999999999995, 358.79999999999995) scale(2.3)" fill="rgba(255, 255, 255, 1)"></use><use xlink:href="#SvgjsG8185" transform="translate(358.79999999999995, 418.59999999999997) scale(2.3)" fill="rgba(255, 255, 255, 1)"></use><use xlink:href="#SvgjsG8189" transform="translate(358.79999999999995, 478.4) scale(2.3)" fill="rgba(255, 255, 255, 1)"></use><use xlink:href="#SvgjsG8190" transform="translate(358.79999999999995, 538.1999999999999) scale(2.3)" fill="rgba(255, 255, 255, 1)"></use><use xlink:href="#SvgjsG8183" transform="translate(418.59999999999997, 0) scale(2.3)" fill="rgba(255, 255, 255, 1)"></use><use xlink:href="#SvgjsG8186" transform="translate(418.59999999999997, 59.8) scale(2.3)" fill="rgba(255, 255, 255, 1)"></use><use xlink:href="#SvgjsG8183" transform="translate(418.59999999999997, 119.6) scale(2.3)" fill="rgba(255, 255, 255, 1)"></use><use xlink:href="#SvgjsG8188" transform="translate(418.59999999999997, 179.39999999999998) scale(2.3)" fill="rgba(255, 255, 255, 1)"></use><use xlink:href="#SvgjsG8188" transform="translate(418.59999999999997, 239.2) scale(2.3)" fill="rgba(255, 255, 255, 1)"></use><use xlink:href="#SvgjsG8184" transform="translate(418.59999999999997, 299) scale(2.3)" fill="rgba(255, 255, 255, 1)"></use><use xlink:href="#SvgjsG8183" transform="translate(418.59999999999997, 358.79999999999995) scale(2.3)" fill="rgba(255, 255, 255, 1)"></use><use xlink:href="#SvgjsG8183" transform="translate(418.59999999999997, 418.59999999999997) scale(2.3)" fill="rgba(255, 255, 255, 1)"></use><use xlink:href="#SvgjsG8190" transform="translate(418.59999999999997, 478.4) scale(2.3)" fill="rgba(255, 255, 255, 1)"></use><use xlink:href="#SvgjsG8187" transform="translate(418.59999999999997, 538.1999999999999) scale(2.3)" fill="rgba(255, 255, 255, 1)"></use><use xlink:href="#SvgjsG8189" transform="translate(478.4, 0) scale(2.3)" fill="rgba(255, 255, 255, 1)"></use><use xlink:href="#SvgjsG8189" transform="translate(478.4, 59.8) scale(2.3)" fill="rgba(255, 255, 255, 1)"></use><use xlink:href="#SvgjsG8188" transform="translate(478.4, 119.6) scale(2.3)" fill="rgba(255, 255, 255, 1)"></use><use xlink:href="#SvgjsG8184" transform="translate(478.4, 179.39999999999998) scale(2.3)" fill="rgba(255, 255, 255, 1)"></use><use xlink:href="#SvgjsG8187" transform="translate(478.4, 239.2) scale(2.3)" fill="rgba(255, 255, 255, 1)"></use><use xlink:href="#SvgjsG8186" transform="translate(478.4, 299) scale(2.3)" fill="rgba(255, 255, 255, 1)"></use><use xlink:href="#SvgjsG8183" transform="translate(478.4, 358.79999999999995) scale(2.3)" fill="rgba(255, 255, 255, 1)"></use><use xlink:href="#SvgjsG8188" transform="translate(478.4, 418.59999999999997) scale(2.3)" fill="rgba(255, 255, 255, 1)"></use><use xlink:href="#SvgjsG8188" transform="translate(478.4, 478.4) scale(2.3)" fill="rgba(255, 255, 255, 1)"></use><use xlink:href="#SvgjsG8185" transform="translate(478.4, 538.1999999999999) scale(2.3)" fill="rgba(255, 255, 255, 1)"></use><use xlink:href="#SvgjsG8187" transform="translate(538.1999999999999, 0) scale(2.3)" fill="rgba(255, 255, 255, 1)"></use><use xlink:href="#SvgjsG8183" transform="translate(538.1999999999999, 59.8) scale(2.3)" fill="rgba(255, 255, 255, 1)"></use><use xlink:href="#SvgjsG8190" transform="translate(538.1999999999999, 119.6) scale(2.3)" fill="rgba(255, 255, 255, 1)"></use><use xlink:href="#SvgjsG8185" transform="translate(538.1999999999999, 179.39999999999998) scale(2.3)" fill="rgba(255, 255, 255, 1)"></use><use xlink:href="#SvgjsG8189" transform="translate(538.1999999999999, 239.2) scale(2.3)" fill="rgba(255, 255, 255, 1)"></use><use xlink:href="#SvgjsG8189" transform="translate(538.1999999999999, 299) scale(2.3)" fill="rgba(255, 255, 255, 1)"></use><use xlink:href="#SvgjsG8190" transform="translate(538.1999999999999, 358.79999999999995) scale(2.3)" fill="rgba(255, 255, 255, 1)"></use><use xlink:href="#SvgjsG8187" transform="translate(538.1999999999999, 418.59999999999997) scale(2.3)" fill="rgba(255, 255, 255, 1)"></use><use xlink:href="#SvgjsG8185" transform="translate(538.1999999999999, 478.4) scale(2.3)" fill="rgba(255, 255, 255, 1)"></use><use xlink:href="#SvgjsG8183" transform="translate(538.1999999999999, 538.1999999999999) scale(2.3)" fill="rgba(255, 255, 255, 1)"></use></g></defs></svg>