<svg xmlns="http://www.w3.org/2000/svg" version="1.1" xmlns:xlink="http://www.w3.org/1999/xlink" xmlns:svgjs="http://svgjs.com/svgjs" width="1965" height="1100" preserveAspectRatio="none" viewBox="0 0 1965 1100"><g mask="url(&quot;#SvgjsMask13234&quot;)" fill="none"><rect width="1965" height="1100" x="0" y="0" fill="url(#SvgjsLinearGradient13235)"></rect><use xlink:href="#SvgjsG13244" transform="translate(0, 0)" fill="rgba(247, 247, 247, 1)"></use><use xlink:href="#SvgjsG13244" transform="translate(0, 598)" fill="rgba(247, 247, 247, 1)"></use><use xlink:href="#SvgjsG13244" transform="translate(598, 0)" fill="rgba(247, 247, 247, 1)"></use><use xlink:href="#SvgjsG13244" transform="translate(598, 598)" fill="rgba(247, 247, 247, 1)"></use><use xlink:href="#SvgjsG13244" transform="translate(1196, 0)" fill="rgba(247, 247, 247, 1)"></use><use xlink:href="#SvgjsG13244" transform="translate(1196, 598)" fill="rgba(247, 247, 247, 1)"></use><use xlink:href="#SvgjsG13244" transform="translate(1794, 0)" fill="rgba(247, 247, 247, 1)"></use><use xlink:href="#SvgjsG13244" transform="translate(1794, 598)" fill="rgba(247, 247, 247, 1)"></use></g><defs><mask id="SvgjsMask13234"><rect width="1965" height="1100" fill="#ffffff"></rect></mask><linearGradient x1="88.99%" y1="-19.66%" x2="11.01%" y2="119.66%" gradientUnits="userSpaceOnUse" id="SvgjsLinearGradient13235"><stop stop-color="rgba(244, 193, 63, 1)" offset="0.18"></stop><stop stop-color="rgba(248, 69, 69, 1)" offset="0.95"></stop><stop stop-color="rgba(255, 255, 255, 1)" offset="1"></stop></linearGradient><g id="SvgjsG13237"><path d="M0.19 5.9C-0.56 5.06 0.28 4.19 0.28 4.19L5.92-0.89l9.95 11.06S16.66 10.97 15.89 11.66c-0.81 0.73-1.41-0.03-1.41-0.04L11.83 8.67a1.37 1.37 0 0 0-0.16-0.28L9.8 5.69l-1.63-3.36a0.22 0.22 0 0 0-0.29-0.1c-0.11 0.05-0.16 0.19-0.11 0.3l1.67 3.42a0.98 0.98 0 0 1 0.05 0.76 0.97 0.97 0 0 1-0.5 0.56 0.97 0.97 0 0 1-0.75 0.05 0.98 0.98 0 0 1-0.56-0.5c0 0 0 0-0.01 0L6.97 5.37c-0.35-0.76-0.93-1.04-1.55-1.33-0.48-0.22-0.97-0.46-1.46-0.93a3.78 3.78 0 0 1-0.19-0.2 0.21 0.21 0 0 0-0.31-0.02c-0.09 0.08-0.1 0.22-0.02 0.32 0.61 0.68 1.24 0.97 1.79 1.23 0.59 0.28 1.06 0.5 1.35 1.12l0.15 0.3c-0.44-0.19-0.96-0.15-1.38 0.14-0.48 0.33-0.69 0.91-0.58 1.45a1.29 1.29 0 0 0-1.05 0.19c-0.58 0.4-0.76 1.24-0.33 1.81L0.19 5.89z" fill-rule="evenodd"></path><path d="M11.07 10c-0.45 0.31-1.06 0.2-1.37-0.24l-1.37-1.97a1.4 1.4 0 0 0 0.85-0.13 1.41 1.41 0 0 0 0.77-0.99l1.36 1.96a0.98 0.98 0 0 1-0.24 1.37M8.6 10.67a0.98 0.98 0 0 1-0.73 0.16 0.98 0.98 0 0 1-0.64-0.4L5.35 7.73a0.98 0.98 0 0 1 0.25-1.37 0.98 0.98 0 0 1 0.74-0.16 0.98 0.98 0 0 1 0.63 0.4l1.88 2.7a0.98 0.98 0 0 1-0.25 1.37M6.02 10.95a0.85 0.85 0 0 1-1.18-0.22l-1.08-1.55a0.85 0.85 0 0 1 0.21-1.18 0.85 0.85 0 0 1 1.19 0.21l1.08 1.55a0.85 0.85 0 0 1-0.13 1.12c-0.03 0.02-0.05 0.05-0.09 0.07" fill-rule="evenodd"></path></g><g id="SvgjsG13240"><path d="M13.15 3.37C10.2 0.09 5.81-0.76 3.34 1.46c-1.21 1.09-1.73 2.71-1.6 4.47l-2.68 2.42 4.19 1.83c0.28 0.42 0.6 0.84 0.96 1.23 2.95 3.27 7.34 4.13 9.8 1.91C16.48 11.09 16.09 6.64 13.15 3.37z" fill-rule="evenodd"></path></g><g id="SvgjsG13236"><path d="M14.38 3.13C12.54 1.09 9.3 0.58 7.26 1.72 6.8 1.97 5.73 2.75 5.73 2.75L2.51 3.95A0.47 0.47 0 0 0 2.34 4.05a0.49 0.49 0 0 0-0.03 0.69l0.54 0.61-1.26 1.13c-0.98 0.89-1.06 2.4-0.18 3.38l0.64 0.71L0.67 11.81l2.36 2.63 0.62-0.56 0.96 1.07L4 15.51l1 1.12L8.83 13.18c1.77 0.31 3.66-0.17 5.1-1.47C16.43 9.46 16.63 5.63 14.38 3.13zM5.83 4.67a0.68 0.68 0 0 1 0.05-0.96c0.28-0.25 0.71-0.23 0.96 0.05a0.68 0.68 0 0 1-0.05 0.96c-0.28 0.25-0.71 0.23-0.96-0.05z m0.29 6.99l0.96 1.07-0.58 0.52-0.96-1.07 0.58-0.52z m0.82-0.74l0.97 1.07-0.58 0.52-0.97-1.07L6.94 10.92z m-1.64 1.48l0.96 1.07-0.58 0.52-0.96-1.07 0.58-0.52z m-0.83 0.74l0.97 1.07-0.58 0.53-0.97-1.07L4.47 13.14z m3.3-2.96l0.96 1.07c-0.04 0.04-0.09 0.07-0.13 0.11l-0.45 0.41-0.96-1.07L7.76 10.18z m6-0.04a1.56 1.56 0 0 1-1.08 0.4c-0.47 0.36-1.09 0.42-1.61 0.18l-0.01 0c-0.7-0.22-1.43-0.08-2.07 0.34L8.61 10.62l1.31-1.18c0.41-0.37 0.79-0.47 1.19-0.35a1.91 1.91 0 0 0 0.43 0.09 1.23 1.23 0 0 1 0.03 0.86c-0.02 0.06 0 0.12 0.04 0.17 0.02 0.02 0.04 0.04 0.07 0.04a0.16 0.16 0 0 0 0.2-0.1l0 0a1.56 1.56 0 0 0 0.01-0.98c0.27-0.04 0.53-0.16 0.78-0.39 0 0 0 0 0 0 0.11-0.1 0.2-0.21 0.28-0.33a1.57 1.57 0 0 0 0.94 0.32 0.16 0.16 0 0 0 0.17-0.17 0.16 0.16 0 0 0-0.16-0.16 1.25 1.25 0 0 1-0.8-0.3c0.17-0.48 0.11-1.02-0.2-1.44a1.24 1.24 0 0 1 0.77-0.22 0.17 0.17 0 0 0 0.17-0.16 0.17 0.17 0 0 0-0.15-0.17 1.57 1.57 0 0 0-1 0.29 1.24 1.24 0 0 1 0.19-1.64c0.07-0.06 0.07-0.17 0.01-0.23-0.06-0.07-0.17-0.07-0.23-0.01-0.08 0.07-0.15 0.15-0.21 0.23a1.24 1.24 0 0 1-1-0.77s0 0 0 0a1.23 1.23 0 0 1-0.09-0.53c0.01-0.09-0.06-0.17-0.15-0.17-0.09-0.01-0.17 0.06-0.18 0.15a1.59 1.59 0 0 0 0.07 0.55c-0.33 0.25-0.75 0.31-1.12 0.2a1.58 1.58 0 0 0-0.09-1.06 0.17 0.17 0 0 0-0.22-0.08c-0.08 0.04-0.12 0.13-0.08 0.22a1.25 1.25 0 0 1 0.09 0.77 1.22 1.22 0 0 1-0.25-0.21l-0.01-0.01a1.57 1.57 0 0 0-1.07-0.52 0.16 0.16 0 0 0-0.17 0.15 0.16 0.16 0 0 0 0.15 0.18 1.24 1.24 0 0 1 0.84 0.41l0.02 0.01c0.53 0.59 1.41 0.68 2.05 0.25 0.06 0.1 0.12 0.19 0.2 0.28A1.57 1.57 0 0 0 12.27 5.09a1.56 1.56 0 0 0-0.13 0.73 1.56 1.56 0 0 0-0.84 0.29 1.62 1.62 0 0 0-0.15-0.2 1.56 1.56 0 0 0-0.63-0.42c-0.09-0.03-0.18 0.01-0.21 0.1-0.02 0.06-0.01 0.12 0.03 0.16a0.14 0.14 0 0 0 0.06 0.05 1.25 1.25 0 0 1 0.5 0.33c0.06 0.06 0.11 0.14 0.15 0.21a1.58 1.58 0 0 0-0.39 0.93c0 0.05 0.01 0.09 0.04 0.12 0.03 0.03 0.07 0.05 0.11 0.06 0.09 0.01 0.17-0.06 0.17-0.15l0 0a1.25 1.25 0 0 1 0.39-0.81c0 0 0.01 0 0.01-0.01l0.01-0.02a1.24 1.24 0 0 1 0.8-0.31 1.57 1.57 0 0 0 0.35 0.63s0 0 0 0l0 0a1.24 1.24 0 0 1-0.09 1.75 1.57 1.57 0 0 0-0.23-0.33c-0.13-0.15-0.29-0.27-0.47-0.36a0.16 0.16 0 0 0-0.23 0.08c-0.04 0.08-0.01 0.18 0.08 0.22a1.25 1.25 0 0 1 0.38 0.28c0.08 0.09 0.15 0.2 0.2 0.31a0.95 0.95 0 0 1-0.51 0.13 0.14 0.14 0 0 0-0.03 0c-0.13-0.01-0.27-0.04-0.43-0.08-0.53-0.17-1.06 0-1.51 0.41L8.39 10.37l-0.38-0.41L9.26 8.83c0.46-0.41 0.63-1.09 0.46-1.59-0.09-0.23-0.14-0.51-0.11-0.77a1.56 1.56 0 0 1-0.79-0.47 1.55 1.55 0 0 1-0.39-0.84 1.58 1.58 0 0 1-0.77-0.47c-0.59-0.66-0.54-1.66 0.12-2.25 0.49-0.44 1.18-0.52 1.74-0.27 0.63-0.36 1.43-0.24 1.93 0.32 0.03 0.03 0.05 0.06 0.07 0.08a1.57 1.57 0 0 1 1.38 0.51c0.18 0.2 0.3 0.43 0.35 0.67a1.56 1.56 0 0 1 1.17 1.54 1.55 1.55 0 0 1 0.28 0.24c0.42 0.47 0.51 1.13 0.27 1.68 0.28 0.61 0.16 1.35-0.37 1.82a1.58 1.58 0 0 1-0.34 0.23 1.56 1.56 0 0 1-0.49 0.88z"></path></g><g id="SvgjsG13241"><path d="M11.57 5.36a1.19 1.19 0 0 0 1.77-1.59 1.19 1.19 0 0 0-1.77 1.59"></path><path d="M11.97 6.2l-1.16-1.29L11.03 0.74A0.6 0.6 0 0 0 10.47 0.1a0.6 0.6 0 0 0-0.65 0.55l-0.23 4.35-7.6 6.85a0.66 0.66 0 0 0 0.89 0.99L7 9.13l0.36 0.4-4.12 3.71c-0.27 0.25-0.29 0.67-0.05 0.95 0.25 0.27 0.67 0.29 0.94 0.04L11.73 7.39 16.09 7.61a0.6 0.6 0 0 0 0.62-0.59 0.6 0.6 0 0 0-0.59-0.62L11.97 6.19z"></path></g><g id="SvgjsG13242"><path d="M0.95 6.43a1.05 1.05 0 1 1 1.56-1.4 1.05 1.05 0 0 1-1.56 1.4zM-3.3 7.41L-1.77 6.03c0.55-0.5 1.41-0.45 1.9 0.11l0.97 1.07c0.5 0.55 0.49 1.45-0.05 1.95L-0.48 10.54-3.3 7.41z m11.6 7.05a1.05 1.05 0 0 0 1.48 0.08 1.05 1.05 0 0 0-1.41-1.56 1.05 1.05 0 0 0-0.07 1.48zM6.82 18.64L8.34 17.26c0.55-0.5 0.59-1.35 0.1-1.9l-0.97-1.08c-0.5-0.55-1.39-0.64-1.94-0.14L4 15.51l2.82 3.13z"></path><path d="M4.66 8.98a1.06 1.05 48 1 0 1.43 1.58 1.06 1.05 48 1 0-1.43-1.58"></path><path d="M0.05 11.12l2.25-0.9c1.09-0.53 1.71 0.22 1.71 0.22l0.56 0.61s0.68 0.7 0.03 1.73L3.47 14.93l-3.42-3.81z m7.1-2.95l1.85-1.66 0.03-0.59-1.85 1.67L2.99 2.94 8.88-2.36l4.18 4.65L10.04 5.01l-0.03 0.58L13.65 2.32 8.91-2.95l-6.5 5.86 4.74 5.26z m7.02 1a1.05 1.05 0 0 1 0.07-1.48c0.43-0.39 1.09-0.35 1.48 0.08a1.05 1.05 0 0 1-0.07 1.48 1.05 1.05 0 0 1-1.48-0.08z"></path><path d="M8.99 7.55a0.44 0.44 0 0 0-0.03 0.62l0.97 1.08c0.11 0.12 0.3 0.24 0.47 0.22 0.55-0.08 1.14-0.16 1.32-0.19l-2.05 1.84 2.45 2.72L14.22 11.96c0.55-0.49 0.66-1.37 0.2-1.87-0.26 0.23-0.09 0.08 0.01-0.01L13.25 8.77a1.34 1.34 0 0 0-1.19-0.44l-1.56 0.24-0.88-0.99L9.75 4.95a0.18 0.18 0 0 0-0.17-0.19 0.18 0.18 0 0 0-0.19 0.17l-0.13 2.51c-0.07 0.01-0.21 0.06-0.26 0.11z"></path></g><g id="SvgjsG13239"><path d="M6.72 14.1L1.29 8.07 9.17 0.98l5.42 6.03-7.87 7.09z m-3.86-1.98a0.46 0.46 0 1 1 0.68-0.62 0.46 0.46 0 0 1-0.68 0.62zM12.27 2.71l0.93 1.03c0.13 0.15-0.13 0.38-0.26 0.24l-0.94-1.04c-0.13-0.15 0.13-0.39 0.27-0.24zM15.98 5.52L10.79-0.24C10.57-0.49 10.13-0.45 9.81-0.17L0.09 8.59c-0.32 0.29-0.4 0.72-0.18 0.97l5.19 5.76c0.22 0.25 0.66 0.21 0.98-0.07L15.8 6.49c0.32-0.29 0.4-0.73 0.18-0.97z" fill-rule="evenodd"></path></g><g id="SvgjsG13243"><path d="M12.44 4C9.64 0.89 5.47 0.08 3.13 2.19c-1.15 1.03-1.64 2.57-1.53 4.24l-2.54 2.3 3.99 1.74c0.27 0.4 0.57 0.8 0.9 1.17 2.8 3.11 6.97 3.92 9.32 1.81 2.34-2.11 1.97-6.34-0.83-9.45zM5.17 6.25a1.07 1.07 0 1 1 1.59-1.42 1.07 1.07 0 0 1-1.59 1.42z m2.13 2.37a1.07 1.07 0 1 1 1.59-1.43 1.07 1.07 0 0 1-1.59 1.43z m2.11 2.34c-0.39-0.44-0.36-1.11 0.08-1.51s1.11-0.36 1.5 0.08 0.36 1.11-0.08 1.51a1.07 1.07 0 0 1-1.5-0.08z"></path></g><g id="SvgjsG13238"><path d="M2.34 7.09l2.7 3c0.12 0.41 0.63 4.56 0.72 5.25l2.23-2-0.01-0.02a2.76 2.76 0 0 0 3.66-0.03L15.91 9.44c1.13-1.02 1.23-2.77 0.2-3.9L10.72-0.45c-1.02-1.14-2.77-1.23-3.91-0.21l-4.27 3.85c-1.13 1.02-1.23 2.77-0.2 3.9z" fill-rule="evenodd"></path></g><g id="SvgjsG13244"><use xlink:href="#SvgjsG13236" transform="translate(0, 0) scale(2.3)" fill="rgba(247, 247, 247, 1)"></use><use xlink:href="#SvgjsG13237" transform="translate(0, 59.8) scale(2.3)" fill="rgba(247, 247, 247, 1)"></use><use xlink:href="#SvgjsG13238" transform="translate(0, 119.6) scale(2.3)" fill="rgba(247, 247, 247, 1)"></use><use xlink:href="#SvgjsG13239" transform="translate(0, 179.39999999999998) scale(2.3)" fill="rgba(247, 247, 247, 1)"></use><use xlink:href="#SvgjsG13240" transform="translate(0, 239.2) scale(2.3)" fill="rgba(247, 247, 247, 1)"></use><use xlink:href="#SvgjsG13241" transform="translate(0, 299) scale(2.3)" fill="rgba(247, 247, 247, 1)"></use><use xlink:href="#SvgjsG13239" transform="translate(0, 358.79999999999995) scale(2.3)" fill="rgba(247, 247, 247, 1)"></use><use xlink:href="#SvgjsG13236" transform="translate(0, 418.59999999999997) scale(2.3)" fill="rgba(247, 247, 247, 1)"></use><use xlink:href="#SvgjsG13238" transform="translate(0, 478.4) scale(2.3)" fill="rgba(247, 247, 247, 1)"></use><use xlink:href="#SvgjsG13237" transform="translate(0, 538.1999999999999) scale(2.3)" fill="rgba(247, 247, 247, 1)"></use><use xlink:href="#SvgjsG13241" transform="translate(59.8, 0) scale(2.3)" fill="rgba(247, 247, 247, 1)"></use><use xlink:href="#SvgjsG13238" transform="translate(59.8, 59.8) scale(2.3)" fill="rgba(247, 247, 247, 1)"></use><use xlink:href="#SvgjsG13236" transform="translate(59.8, 119.6) scale(2.3)" fill="rgba(247, 247, 247, 1)"></use><use xlink:href="#SvgjsG13239" transform="translate(59.8, 179.39999999999998) scale(2.3)" fill="rgba(247, 247, 247, 1)"></use><use xlink:href="#SvgjsG13237" transform="translate(59.8, 239.2) scale(2.3)" fill="rgba(247, 247, 247, 1)"></use><use xlink:href="#SvgjsG13238" transform="translate(59.8, 299) scale(2.3)" fill="rgba(247, 247, 247, 1)"></use><use xlink:href="#SvgjsG13239" transform="translate(59.8, 358.79999999999995) scale(2.3)" fill="rgba(247, 247, 247, 1)"></use><use xlink:href="#SvgjsG13236" transform="translate(59.8, 418.59999999999997) scale(2.3)" fill="rgba(247, 247, 247, 1)"></use><use xlink:href="#SvgjsG13240" transform="translate(59.8, 478.4) scale(2.3)" fill="rgba(247, 247, 247, 1)"></use><use xlink:href="#SvgjsG13239" transform="translate(59.8, 538.1999999999999) scale(2.3)" fill="rgba(247, 247, 247, 1)"></use><use xlink:href="#SvgjsG13242" transform="translate(119.6, 0) scale(2.3)" fill="rgba(247, 247, 247, 1)"></use><use xlink:href="#SvgjsG13237" transform="translate(119.6, 59.8) scale(2.3)" fill="rgba(247, 247, 247, 1)"></use><use xlink:href="#SvgjsG13236" transform="translate(119.6, 119.6) scale(2.3)" fill="rgba(247, 247, 247, 1)"></use><use xlink:href="#SvgjsG13243" transform="translate(119.6, 179.39999999999998) scale(2.3)" fill="rgba(247, 247, 247, 1)"></use><use xlink:href="#SvgjsG13239" transform="translate(119.6, 239.2) scale(2.3)" fill="rgba(247, 247, 247, 1)"></use><use xlink:href="#SvgjsG13243" transform="translate(119.6, 299) scale(2.3)" fill="rgba(247, 247, 247, 1)"></use><use xlink:href="#SvgjsG13237" transform="translate(119.6, 358.79999999999995) scale(2.3)" fill="rgba(247, 247, 247, 1)"></use><use xlink:href="#SvgjsG13238" transform="translate(119.6, 418.59999999999997) scale(2.3)" fill="rgba(247, 247, 247, 1)"></use><use xlink:href="#SvgjsG13239" transform="translate(119.6, 478.4) scale(2.3)" fill="rgba(247, 247, 247, 1)"></use><use xlink:href="#SvgjsG13238" transform="translate(119.6, 538.1999999999999) scale(2.3)" fill="rgba(247, 247, 247, 1)"></use><use xlink:href="#SvgjsG13239" transform="translate(179.39999999999998, 0) scale(2.3)" fill="rgba(247, 247, 247, 1)"></use><use xlink:href="#SvgjsG13238" transform="translate(179.39999999999998, 59.8) scale(2.3)" fill="rgba(247, 247, 247, 1)"></use><use xlink:href="#SvgjsG13239" transform="translate(179.39999999999998, 119.6) scale(2.3)" fill="rgba(247, 247, 247, 1)"></use><use xlink:href="#SvgjsG13237" transform="translate(179.39999999999998, 179.39999999999998) scale(2.3)" fill="rgba(247, 247, 247, 1)"></use><use xlink:href="#SvgjsG13240" transform="translate(179.39999999999998, 239.2) scale(2.3)" fill="rgba(247, 247, 247, 1)"></use><use xlink:href="#SvgjsG13241" transform="translate(179.39999999999998, 299) scale(2.3)" fill="rgba(247, 247, 247, 1)"></use><use xlink:href="#SvgjsG13236" transform="translate(179.39999999999998, 358.79999999999995) scale(2.3)" fill="rgba(247, 247, 247, 1)"></use><use xlink:href="#SvgjsG13237" transform="translate(179.39999999999998, 418.59999999999997) scale(2.3)" fill="rgba(247, 247, 247, 1)"></use><use xlink:href="#SvgjsG13243" transform="translate(179.39999999999998, 478.4) scale(2.3)" fill="rgba(247, 247, 247, 1)"></use><use xlink:href="#SvgjsG13240" transform="translate(179.39999999999998, 538.1999999999999) scale(2.3)" fill="rgba(247, 247, 247, 1)"></use><use xlink:href="#SvgjsG13239" transform="translate(239.2, 0) scale(2.3)" fill="rgba(247, 247, 247, 1)"></use><use xlink:href="#SvgjsG13241" transform="translate(239.2, 59.8) scale(2.3)" fill="rgba(247, 247, 247, 1)"></use><use xlink:href="#SvgjsG13238" transform="translate(239.2, 119.6) scale(2.3)" fill="rgba(247, 247, 247, 1)"></use><use xlink:href="#SvgjsG13243" transform="translate(239.2, 179.39999999999998) scale(2.3)" fill="rgba(247, 247, 247, 1)"></use><use xlink:href="#SvgjsG13243" transform="translate(239.2, 239.2) scale(2.3)" fill="rgba(247, 247, 247, 1)"></use><use xlink:href="#SvgjsG13242" transform="translate(239.2, 299) scale(2.3)" fill="rgba(247, 247, 247, 1)"></use><use xlink:href="#SvgjsG13240" transform="translate(239.2, 358.79999999999995) scale(2.3)" fill="rgba(247, 247, 247, 1)"></use><use xlink:href="#SvgjsG13238" transform="translate(239.2, 418.59999999999997) scale(2.3)" fill="rgba(247, 247, 247, 1)"></use><use xlink:href="#SvgjsG13241" transform="translate(239.2, 478.4) scale(2.3)" fill="rgba(247, 247, 247, 1)"></use><use xlink:href="#SvgjsG13240" transform="translate(239.2, 538.1999999999999) scale(2.3)" fill="rgba(247, 247, 247, 1)"></use><use xlink:href="#SvgjsG13242" transform="translate(299, 0) scale(2.3)" fill="rgba(247, 247, 247, 1)"></use><use xlink:href="#SvgjsG13241" transform="translate(299, 59.8) scale(2.3)" fill="rgba(247, 247, 247, 1)"></use><use xlink:href="#SvgjsG13240" transform="translate(299, 119.6) scale(2.3)" fill="rgba(247, 247, 247, 1)"></use><use xlink:href="#SvgjsG13236" transform="translate(299, 179.39999999999998) scale(2.3)" fill="rgba(247, 247, 247, 1)"></use><use xlink:href="#SvgjsG13242" transform="translate(299, 239.2) scale(2.3)" fill="rgba(247, 247, 247, 1)"></use><use xlink:href="#SvgjsG13236" transform="translate(299, 299) scale(2.3)" fill="rgba(247, 247, 247, 1)"></use><use xlink:href="#SvgjsG13238" transform="translate(299, 358.79999999999995) scale(2.3)" fill="rgba(247, 247, 247, 1)"></use><use xlink:href="#SvgjsG13242" transform="translate(299, 418.59999999999997) scale(2.3)" fill="rgba(247, 247, 247, 1)"></use><use xlink:href="#SvgjsG13237" transform="translate(299, 478.4) scale(2.3)" fill="rgba(247, 247, 247, 1)"></use><use xlink:href="#SvgjsG13239" transform="translate(299, 538.1999999999999) scale(2.3)" fill="rgba(247, 247, 247, 1)"></use><use xlink:href="#SvgjsG13243" transform="translate(358.79999999999995, 0) scale(2.3)" fill="rgba(247, 247, 247, 1)"></use><use xlink:href="#SvgjsG13237" transform="translate(358.79999999999995, 59.8) scale(2.3)" fill="rgba(247, 247, 247, 1)"></use><use xlink:href="#SvgjsG13237" transform="translate(358.79999999999995, 119.6) scale(2.3)" fill="rgba(247, 247, 247, 1)"></use><use xlink:href="#SvgjsG13238" transform="translate(358.79999999999995, 179.39999999999998) scale(2.3)" fill="rgba(247, 247, 247, 1)"></use><use xlink:href="#SvgjsG13239" transform="translate(358.79999999999995, 239.2) scale(2.3)" fill="rgba(247, 247, 247, 1)"></use><use xlink:href="#SvgjsG13237" transform="translate(358.79999999999995, 299) scale(2.3)" fill="rgba(247, 247, 247, 1)"></use><use xlink:href="#SvgjsG13237" transform="translate(358.79999999999995, 358.79999999999995) scale(2.3)" fill="rgba(247, 247, 247, 1)"></use><use xlink:href="#SvgjsG13236" transform="translate(358.79999999999995, 418.59999999999997) scale(2.3)" fill="rgba(247, 247, 247, 1)"></use><use xlink:href="#SvgjsG13242" transform="translate(358.79999999999995, 478.4) scale(2.3)" fill="rgba(247, 247, 247, 1)"></use><use xlink:href="#SvgjsG13242" transform="translate(358.79999999999995, 538.1999999999999) scale(2.3)" fill="rgba(247, 247, 247, 1)"></use><use xlink:href="#SvgjsG13236" transform="translate(418.59999999999997, 0) scale(2.3)" fill="rgba(247, 247, 247, 1)"></use><use xlink:href="#SvgjsG13239" transform="translate(418.59999999999997, 59.8) scale(2.3)" fill="rgba(247, 247, 247, 1)"></use><use xlink:href="#SvgjsG13237" transform="translate(418.59999999999997, 119.6) scale(2.3)" fill="rgba(247, 247, 247, 1)"></use><use xlink:href="#SvgjsG13236" transform="translate(418.59999999999997, 179.39999999999998) scale(2.3)" fill="rgba(247, 247, 247, 1)"></use><use xlink:href="#SvgjsG13241" transform="translate(418.59999999999997, 239.2) scale(2.3)" fill="rgba(247, 247, 247, 1)"></use><use xlink:href="#SvgjsG13238" transform="translate(418.59999999999997, 299) scale(2.3)" fill="rgba(247, 247, 247, 1)"></use><use xlink:href="#SvgjsG13240" transform="translate(418.59999999999997, 358.79999999999995) scale(2.3)" fill="rgba(247, 247, 247, 1)"></use><use xlink:href="#SvgjsG13241" transform="translate(418.59999999999997, 418.59999999999997) scale(2.3)" fill="rgba(247, 247, 247, 1)"></use><use xlink:href="#SvgjsG13236" transform="translate(418.59999999999997, 478.4) scale(2.3)" fill="rgba(247, 247, 247, 1)"></use><use xlink:href="#SvgjsG13243" transform="translate(418.59999999999997, 538.1999999999999) scale(2.3)" fill="rgba(247, 247, 247, 1)"></use><use xlink:href="#SvgjsG13240" transform="translate(478.4, 0) scale(2.3)" fill="rgba(247, 247, 247, 1)"></use><use xlink:href="#SvgjsG13239" transform="translate(478.4, 59.8) scale(2.3)" fill="rgba(247, 247, 247, 1)"></use><use xlink:href="#SvgjsG13238" transform="translate(478.4, 119.6) scale(2.3)" fill="rgba(247, 247, 247, 1)"></use><use xlink:href="#SvgjsG13242" transform="translate(478.4, 179.39999999999998) scale(2.3)" fill="rgba(247, 247, 247, 1)"></use><use xlink:href="#SvgjsG13241" transform="translate(478.4, 239.2) scale(2.3)" fill="rgba(247, 247, 247, 1)"></use><use xlink:href="#SvgjsG13238" transform="translate(478.4, 299) scale(2.3)" fill="rgba(247, 247, 247, 1)"></use><use xlink:href="#SvgjsG13236" transform="translate(478.4, 358.79999999999995) scale(2.3)" fill="rgba(247, 247, 247, 1)"></use><use xlink:href="#SvgjsG13240" transform="translate(478.4, 418.59999999999997) scale(2.3)" fill="rgba(247, 247, 247, 1)"></use><use xlink:href="#SvgjsG13240" transform="translate(478.4, 478.4) scale(2.3)" fill="rgba(247, 247, 247, 1)"></use><use xlink:href="#SvgjsG13240" transform="translate(478.4, 538.1999999999999) scale(2.3)" fill="rgba(247, 247, 247, 1)"></use><use xlink:href="#SvgjsG13243" transform="translate(538.1999999999999, 0) scale(2.3)" fill="rgba(247, 247, 247, 1)"></use><use xlink:href="#SvgjsG13239" transform="translate(538.1999999999999, 59.8) scale(2.3)" fill="rgba(247, 247, 247, 1)"></use><use xlink:href="#SvgjsG13242" transform="translate(538.1999999999999, 119.6) scale(2.3)" fill="rgba(247, 247, 247, 1)"></use><use xlink:href="#SvgjsG13240" transform="translate(538.1999999999999, 179.39999999999998) scale(2.3)" fill="rgba(247, 247, 247, 1)"></use><use xlink:href="#SvgjsG13238" transform="translate(538.1999999999999, 239.2) scale(2.3)" fill="rgba(247, 247, 247, 1)"></use><use xlink:href="#SvgjsG13236" transform="translate(538.1999999999999, 299) scale(2.3)" fill="rgba(247, 247, 247, 1)"></use><use xlink:href="#SvgjsG13240" transform="translate(538.1999999999999, 358.79999999999995) scale(2.3)" fill="rgba(247, 247, 247, 1)"></use><use xlink:href="#SvgjsG13236" transform="translate(538.1999999999999, 418.59999999999997) scale(2.3)" fill="rgba(247, 247, 247, 1)"></use><use xlink:href="#SvgjsG13243" transform="translate(538.1999999999999, 478.4) scale(2.3)" fill="rgba(247, 247, 247, 1)"></use><use xlink:href="#SvgjsG13239" transform="translate(538.1999999999999, 538.1999999999999) scale(2.3)" fill="rgba(247, 247, 247, 1)"></use></g></defs></svg>